<svg xmlns="http://www.w3.org/2000/svg" width="120" height="40" viewBox="0 0 120 40">
  <g fill="none" fill-rule="evenodd">
    <rect width="120" height="40" fill="#000" rx="6"/>
    <g fill="#FFF" transform="translate(8 7)">
      <path d="M24.252 20.267c-.031-2.725 2.232-4.037 2.335-4.102-1.276-1.866-3.257-2.121-3.957-2.144-1.664-.174-3.278.997-4.127.997-.861 0-2.164-.979-3.569-.951-1.818.029-3.506 1.072-4.438 2.703-1.914 3.32-.485 8.197 1.35 10.884.914 1.314 1.989 2.779 3.395 2.728 1.372-.057 1.882-.878 3.532-.878 1.638 0 2.117.878 3.538.845 1.467-.021 2.391-1.316 3.27-2.64.549-.772 1.109-1.663 1.108-1.663-.684.066-2.355-.783-2.437-3.779z"/>
      <path d="M21.818 10.916c.737-.914 1.24-2.167 1.102-3.429-1.067.045-2.404.728-3.17 1.622-.68.794-1.285 2.079-1.126 3.294 1.196.09 2.422-.6 3.194-1.487z"/>
    </g>
    <g fill="#FFF">
      <path d="M54.578 28.607h-3.67l-1.018 2.996h-1.796l4.014-11.106h2.295l4.014 11.106H56.61l-1.033-2.996zm-3.29-1.194h2.916l-1.437-4.236h-.036l-1.443 4.236z"/>
      <path d="M65.936 27.395c0 2.564-1.372 4.208-3.441 4.208-1.797 0-2.916-1.027-2.952-2.24h-.042v6.353h-1.662V23.302h1.61v2.132h.03c.036-1.213 1.19-2.236 2.987-2.236 2.094 0 3.47 1.639 3.47 4.197zm-1.701 0c0-1.674-.87-2.773-2.196-2.773-1.308 0-2.19 1.123-2.19 2.773 0 1.662.882 2.776 2.19 2.776 1.326 0 2.196-1.093 2.196-2.776z"/>
      <path d="M73.542 27.395c0 2.564-1.372 4.208-3.442 4.208-1.797 0-2.916-1.027-2.952-2.24h-.042v6.353h-1.662V23.302h1.61v2.132h.03c.036-1.213 1.19-2.236 2.987-2.236 2.094 0 3.471 1.639 3.471 4.197zm-1.701 0c0-1.674-.87-2.773-2.196-2.773-1.308 0-2.19 1.123-2.19 2.773 0 1.662.882 2.776 2.19 2.776 1.326 0 2.196-1.093 2.196-2.776z"/>
      <path d="M78.897 29.076c.125 1.123 1.218 1.861 2.71 1.861 1.431 0 2.46-.738 2.46-1.75 0-.88-.62-1.406-2.082-1.767l-1.467-.353c-2.077-.503-3.04-1.472-3.04-3.049 0-1.95 1.701-3.29 4.124-3.29 2.395 0 4.037 1.34 4.089 3.29h-1.701c-.101-1.129-1.03-1.809-2.406-1.809-1.372 0-2.31.686-2.31 1.684 0 .794.593 1.261 2.046 1.622l1.248.305c2.316.546 3.279 1.471 3.279 3.12 0 2.111-1.68 3.435-4.376 3.435-2.507 0-4.202-1.297-4.303-3.3h1.729z"/>
      <path d="M90.892 20.84v2.467h1.98v1.313h-1.98v5.753c0 .893.396 1.307 1.265 1.307.225 0 .648-.03.703-.042v1.31a5.879 5.879 0 0 1-1.187.098c-2.106 0-2.934-.787-2.934-2.798v-5.628h-1.515V23.31h1.515V20.84h2.153z"/>
      <path d="M94.376 27.395c0-2.576 1.515-4.211 3.878-4.211 2.369 0 3.884 1.635 3.884 4.211 0 2.582-1.504 4.208-3.884 4.208-2.375 0-3.878-1.626-3.878-4.208zm6.074 0c0-1.768-.81-2.815-2.196-2.815-1.384 0-2.195 1.052-2.195 2.815 0 1.774.811 2.815 2.195 2.815 1.386 0 2.196-1.041 2.196-2.815z"/>
      <path d="M104.038 23.303h1.587v2.144h.03c.262-1.39 1.288-2.248 2.52-2.248.31 0 .57.042.745.078v1.61a3.16 3.16 0 0 0-.983-.131c-1.39 0-2.227.94-2.227 2.414v5.43h-1.672V23.302z"/>
      <path d="M116.574 28.945c-.226 1.488-1.672 2.658-3.525 2.658-2.381 0-3.861-1.597-3.861-4.166 0-2.57 1.48-4.253 3.777-4.253 2.26 0 3.68 1.549 3.68 4.017v.572h-5.77v.102c0 1.404.882 2.324 2.213 2.324.94 0 1.672-.447 1.898-1.254h1.588zm-5.675-2.457h4.075c-.036-1.26-.828-2.09-1.995-2.09-1.169 0-1.974.83-2.08 2.09z"/>
    </g>
  </g>
</svg> 