<svg xmlns="http://www.w3.org/2000/svg" width="120" height="40" viewBox="0 0 120 40">
  <rect width="120" height="40" rx="6" fill="#000"/>
  <g>
    <!-- Play Store Icon -->
    <path d="M10.02 7.72v24.55c0 0.87 0.51 1.04 1.14 0.38l15.59-12.33c0.63-0.49 0.63-1.31 0-1.81L11.16 6.19c-0.63-0.67-1.14-0.5-1.14 0.38V7.72z" fill="#EA4335"/>
    <path d="M10.02 7.72L26.74 18.52L20.6 24.17L10.02 7.72z" fill="#FBBC04"/>
    <path d="M26.74 18.51L20.6 24.16L10.02 32.28V7.72L26.74 18.51z" fill="#34A853"/>
    <path d="M10.02 32.27L20.6 24.16L26.74 18.51L10.02 7.72V32.27z" fill="#4285F4"/>
    
    <!-- Text -->
    <g fill="#FFFFFF">
      <path d="M40.55 10.5c0 .88-.26 1.57-.76 2.08-.58.59-1.33.88-2.25.88-.88 0-1.63-.3-2.24-.9-.61-.6-.92-1.35-.92-2.23 0-.89.31-1.63.92-2.23.61-.6 1.36-.9 2.24-.9.44 0 .85.08 1.24.25.39.17.7.39.93.67l-.52.52c-.4-.47-.94-.71-1.64-.71-.63 0-1.17.22-1.62.67-.45.44-.67 1.02-.67 1.73s.22 1.29.67 1.73c.45.44.99.67 1.62.67.67 0 1.22-.22 1.67-.67.29-.29.46-.69.51-1.21h-2.18v-.72h2.91c.03.16.04.31.04.47z"/>
      <path d="M45.28 8.24h-2.73v1.9h2.46v.72h-2.46v1.9h2.73v.74h-3.5v-6h3.5v.74z"/>
      <path d="M48.95 13.5h-.77V8.24h-1.68v-.74h4.12v.74h-1.68V13.5z"/>
      <path d="M54.08 13.5V7.5h.77v6h-.77z"/>
      <path d="M59.09 13.5h-.77V8.24h-1.68v-.74h4.12v.74h-1.68V13.5z"/>
      
      <path d="M38.26 22.08c-1.04 0-1.9.32-2.57.95-.67.64-1.01 1.43-1.01 2.39 0 .96.34 1.76 1.01 2.39.67.64 1.52.95 2.57.95 1.05 0 1.9-.32 2.57-.95.67-.64 1.01-1.43 1.01-2.39 0-.96-.34-1.76-1.01-2.39-.67-.64-1.52-.95-2.57-.95zm0 6.03c-.8 0-1.48-.27-2.02-.81-.55-.54-.82-1.2-.82-1.99 0-.79.27-1.46.82-1.99.55-.54 1.22-.81 2.02-.81.8 0 1.48.27 2.02.81.55.54.82 1.2.82 1.99 0 .79-.27 1.46-.82 1.99-.55.54-1.22.81-2.02.81z"/>
      <path d="M45.52 22.08c-1.04 0-1.9.32-2.57.95-.67.64-1.01 1.43-1.01 2.39 0 .96.34 1.76 1.01 2.39.67.64 1.52.95 2.57.95 1.05 0 1.9-.32 2.57-.95.67-.64 1.01-1.43 1.01-2.39 0-.96-.34-1.76-1.01-2.39-.67-.64-1.52-.95-2.57-.95zm0 6.03c-.8 0-1.48-.27-2.02-.81-.55-.54-.82-1.2-.82-1.99 0-.79.27-1.46.82-1.99.55-.54 1.22-.81 2.02-.81.8 0 1.48.27 2.02.81.55.54.82 1.2.82 1.99 0 .79-.27 1.46-.82 1.99-.55.54-1.22.81-2.02.81z"/>
      <path d="M55.83 22.29v6.62h-.97v-6.62h-1.85v-.9h4.67v.9h-1.85z"/>
      <path d="M59.58 28.91V21.4h1.02l3.14 5.03h.04l-.04-1.25v-3.78h.97v7.51h-.87l-3.28-5.27h-.04l.04 1.25v4.03h-.97z"/>
    </g>
  </g>
</svg> 