<svg xmlns="http://www.w3.org/2000/svg" xmlns:xlink="http://www.w3.org/1999/xlink" width="251.576" height="237.607" viewBox="0 0 251.576 237.607">
  <defs>
    <clipPath id="clip-path">
      <rect id="Rectangle_59" data-name="Rectangle 59" width="251.576" height="237.607" transform="translate(165.508 69.699)" fill="none"/>
    </clipPath>
  </defs>
  <g id="Group_292" data-name="Group 292" transform="translate(-165.508 -69.699)">
    <path id="Path_113" data-name="Path 113" d="M207.754,298.059V282.08h2.7v13.895h8.188v2.084Z" fill="#fff"/>
    <path id="Path_114" data-name="Path 114" d="M221.748,298.059v-9.7h-1.787l.249-2.059h4.243v11.761Zm-.223-16.451h2.953v2.233h-2.953Z" fill="#fff"/>
    <path id="Path_115" data-name="Path 115" d="M231.872,298.059l-4.64-11.761h2.8l3.3,9.131,3.3-9.131h2.779L234.8,298.059Z" fill="#fff"/>
    <g id="Group_39" data-name="Group 39">
      <g id="Group_38" data-name="Group 38" clip-path="url(#clip-path)">
        <path id="Path_116" data-name="Path 116" d="M247.28,298.307a6.888,6.888,0,0,1-4.764-1.513,5.924,5.924,0,0,1-1.687-4.64,6.525,6.525,0,0,1,1.439-4.466,5.508,5.508,0,0,1,4.367-1.638,5.359,5.359,0,0,1,4.032,1.4,4.987,4.987,0,0,1,1.352,3.61v2.184h-8.61a2.98,2.98,0,0,0,1.241,2.357,6.16,6.16,0,0,0,3.176.645,10.116,10.116,0,0,0,1.836-.174,8.868,8.868,0,0,0,1.637-.446v1.985a7.807,7.807,0,0,1-1.823.521,13.3,13.3,0,0,1-2.2.173m-3.871-6.823h6.228v-.819a2.592,2.592,0,0,0-.67-1.9,3.086,3.086,0,0,0-2.258-.682,3.324,3.324,0,0,0-2.593.818,3.9,3.9,0,0,0-.707,2.581" fill="#fff"/>
        <path id="Path_117" data-name="Path 117" d="M266.088,298.307a3.655,3.655,0,0,1-2.816-1.005,3.876,3.876,0,0,1-.931-2.742v-6.153H260.6V286.3h1.737v-2.705l2.68-.819V286.3h3.126l-.173,2.109h-2.953v6a1.816,1.816,0,0,0,.471,1.427,2.33,2.33,0,0,0,1.539.41,4.46,4.46,0,0,0,1.414-.249v1.911a6.228,6.228,0,0,1-2.357.4" fill="#fff"/>
        <path id="Path_118" data-name="Path 118" d="M271.124,298.059V281.335h2.705v6.1a6.307,6.307,0,0,1,1.836-1.005,7.07,7.07,0,0,1,2.406-.384,3.814,3.814,0,0,1,4.368,4.392v7.617h-2.68v-7.493a2.553,2.553,0,0,0-.583-1.911,2.946,2.946,0,0,0-2.023-.546,4.672,4.672,0,0,0-1.811.385,4.43,4.43,0,0,0-1.513,1.005v8.56Z" fill="#fff"/>
        <path id="Path_119" data-name="Path 119" d="M291.793,298.307a6.888,6.888,0,0,1-4.764-1.513,5.924,5.924,0,0,1-1.688-4.64,6.525,6.525,0,0,1,1.44-4.466,5.507,5.507,0,0,1,4.367-1.638,5.359,5.359,0,0,1,4.032,1.4,4.987,4.987,0,0,1,1.352,3.61v2.184h-8.61a2.98,2.98,0,0,0,1.241,2.357,6.16,6.16,0,0,0,3.176.645,10.116,10.116,0,0,0,1.836-.174,8.868,8.868,0,0,0,1.637-.446v1.985a7.808,7.808,0,0,1-1.823.521,13.3,13.3,0,0,1-2.2.173m-3.871-6.823h6.228v-.819a2.592,2.592,0,0,0-.67-1.9,3.086,3.086,0,0,0-2.258-.682,3.323,3.323,0,0,0-2.593.818,3.9,3.9,0,0,0-.707,2.581" fill="#fff"/>
        <path id="Path_120" data-name="Path 120" d="M306.829,298.059v-9.652h-1.712V286.3h1.712v-1.439a4.058,4.058,0,0,1,.98-2.841,3.739,3.739,0,0,1,2.916-1.08,7.2,7.2,0,0,1,1.315.112,5.818,5.818,0,0,1,1.091.31V283.3a4.644,4.644,0,0,0-1.563-.273,2.361,2.361,0,0,0-1.613.421,1.929,1.929,0,0,0-.446,1.44V286.3h3.077l-.125,2.109h-2.952v9.652Z" fill="#fff"/>
        <path id="Path_121" data-name="Path 121" d="M319.9,298.307a4.3,4.3,0,0,1-3.238-1.166,4.734,4.734,0,0,1-1.129-3.424V286.3h2.705v7.419a2.571,2.571,0,0,0,.645,1.935,2.769,2.769,0,0,0,1.985.62,4.5,4.5,0,0,0,1.836-.372,4.787,4.787,0,0,0,1.464-.992V286.3h2.68v11.761H324.4l-.124-1.216a7.307,7.307,0,0,1-1.886,1.042,6.851,6.851,0,0,1-2.481.422" fill="#fff"/>
        <path id="Path_122" data-name="Path 122" d="M335.115,298.307A3.656,3.656,0,0,1,332.3,297.3a3.876,3.876,0,0,1-.931-2.742v-6.153h-1.737V286.3h1.737v-2.705l2.68-.819V286.3h3.126L337,288.407h-2.953v6a1.816,1.816,0,0,0,.471,1.427,2.33,2.33,0,0,0,1.539.41,4.46,4.46,0,0,0,1.414-.249v1.911a6.228,6.228,0,0,1-2.357.4" fill="#fff"/>
        <path id="Path_123" data-name="Path 123" d="M344.394,298.307a4.3,4.3,0,0,1-3.238-1.166,4.734,4.734,0,0,1-1.129-3.424V286.3h2.7v7.419a2.571,2.571,0,0,0,.645,1.935,2.769,2.769,0,0,0,1.985.62,4.5,4.5,0,0,0,1.836-.372,4.786,4.786,0,0,0,1.464-.992V286.3h2.68v11.761h-2.457l-.124-1.216a7.307,7.307,0,0,1-1.886,1.042,6.851,6.851,0,0,1-2.481.422" fill="#fff"/>
        <path id="Path_124" data-name="Path 124" d="M355.113,298.059V286.3h2.481l.149,1.364a10.879,10.879,0,0,1,2.01-.992,11.1,11.1,0,0,1,2.308-.62v2.059a14.514,14.514,0,0,0-1.5.36q-.805.236-1.526.521a8.367,8.367,0,0,0-1.215.583v8.486Z" fill="#fff"/>
        <path id="Path_125" data-name="Path 125" d="M370.1,298.307a6.888,6.888,0,0,1-4.764-1.513,5.924,5.924,0,0,1-1.688-4.64,6.525,6.525,0,0,1,1.44-4.466,5.506,5.506,0,0,1,4.366-1.638,5.36,5.36,0,0,1,4.033,1.4,4.987,4.987,0,0,1,1.352,3.61v2.184h-8.61a2.98,2.98,0,0,0,1.241,2.357,6.16,6.16,0,0,0,3.176.645,10.116,10.116,0,0,0,1.836-.174,8.867,8.867,0,0,0,1.637-.446v1.985a7.8,7.8,0,0,1-1.824.521,13.282,13.282,0,0,1-2.195.173m-3.871-6.823h6.228v-.819a2.592,2.592,0,0,0-.67-1.9,3.086,3.086,0,0,0-2.258-.682,3.323,3.323,0,0,0-2.593.818,3.9,3.9,0,0,0-.707,2.581" fill="#fff"/>
        <path id="Path_126" data-name="Path 126" d="M219.86,247.681c0-11.264,8.85-19.524,20.864-19.524s20.863,8.26,20.863,19.524S252.738,267.2,240.724,267.2s-20.864-8.26-20.864-19.524m31,0c0-6.488-4.451-10.726-10.137-10.726s-10.141,4.238-10.141,10.726,4.455,10.727,10.141,10.727,10.137-4.235,10.137-10.727" fill="#fff"/>
        <path id="Path_127" data-name="Path 127" d="M349.862,259.16h-15.88l-2.947,7.295H320.2l16.577-37.545h10.454l16.629,37.545H352.813Zm-3.112-7.831-4.828-12.013L337.1,251.329Z" fill="#fff"/>
        <path id="Path_128" data-name="Path 128" d="M390.9,256.479h-5.8v9.973H374.49V228.908h17.163c10.245,0,16.677,5.309,16.677,13.89a12.457,12.457,0,0,1-7.346,11.853l8.1,11.8H397.712Zm.1-19.2h-5.9v10.995h5.9c4.4,0,6.6-2.041,6.6-5.473,0-3.485-2.2-5.522-6.6-5.522" fill="#fff"/>
        <path id="Path_129" data-name="Path 129" d="M198.611,228.91v14.107h-14.48V228.91h-.08l-10.542,10.542v27h10.622V251.811h14.48v14.644h10.618V228.91Z" fill="#fff"/>
        <path id="Path_130" data-name="Path 130" d="M299.434,246.876h-7.671v6.592h7.567v3.706a13.51,13.51,0,0,1-5.742,1.235c-6.328,0-10.619-4.4-10.619-10.727,0-6.488,4.291-10.726,10.727-10.726a11.708,11.708,0,0,1,9.118,4.182l6.757-6.115c-3.7-4.451-9.387-6.865-16.408-6.865-12.179,0-20.92,8.1-20.92,19.524s8.741,19.524,20.7,19.524a28.01,28.01,0,0,0,15.767-4.775V246.876Z" fill="#fff"/>
        <path id="Path_131" data-name="Path 131" d="M292.826,137.728l-1.529-1.536L234.024,78.7V204.117l57.273-57.5,57.272,57.5V137.728Zm-51.449,48.59V145.081h41.068Zm0-48.59V96.5l41.068,41.23Zm99.84,48.59-41.069-41.237h41.069Z" fill="#fff"/>
      </g>
    </g>
  </g>
</svg>
